<svg xmlns="http://www.w3.org/2000/svg" viewBox="0 0 100 125" x="0px" y="0px"><path d="m 17.710081 47.467734 c -3.289178 0 -6.280669 2.994698 -6.278946 6.283863 c .0018 3.286651 2.992296 6.275275 6.278946 6.275275 c 3.28665 0 6.276432 -2.988624 6.278943 -6.275275 c .0025 -3.290006 -2.989768 -6.283863 -6.278943 -6.283863 z"/><path d="m 49.99935 47.467734 c -3.289176 0 -6.280725 2.994698 -6.278944 6.283863 c .0018 3.286651 2.992296 6.275275 6.278944 6.275275 c 3.286653 0 6.277629 -2.988624 6.280176 -6.275275 c .0025 -3.290006 -2.990997 -6.283863 -6.280176 -6.283863 z"/><path d="m 82.289924 47.467734 c -3.289181 0 -6.280604 2.994698 -6.278947 6.283863 c .0017 3.286651 2.992296 6.275275 6.278947 6.275275 c 3.286652 0 6.276382 -2.988624 6.278944 -6.275275 c .0025 -3.290006 -2.989774 -6.283863 -6.278944 -6.283863 z"/><path d="m 17.710081 61.601518 c -9.3494285 0 -11.3014498 10.474211 -12.491408 14.967292 c -1.1899563 4.493099 2.4075028 5.26569 12.491408 5.26569 c 10.083906 0 13.681366 -.772591 12.491408 -5.26569 C 29.011534 72.075729 27.059507 61.601518 17.710081 61.601518 Z"/><path d="m 49.99935 61.601518 c -9.349424 0 -11.301452 10.474211 -12.491409 14.967292 c -1.189956 4.493099 2.407509 5.26569 12.491409 5.26569 c 10.083901 0 13.682603 -.772591 12.492641 -5.26569 C 61.30204 72.075729 59.348782 61.601518 49.99935 61.601518 Z"/><path d="m 82.289924 61.601518 c -9.349431 0 -11.301454 10.474211 -12.49141 14.967292 c -1.189958 4.493099 2.407504 5.26569 12.49141 5.26569 c 10.083898 0 13.681364 -.772591 12.491401 -5.26569 C 93.591371 72.075729 91.639353 61.601518 82.289924 61.601518 Z"/><path d="m 26.177198 18.165735 c -2.286738 0 -4.366577 2.082004 -4.365321 4.368751 c .0013 2.28499 2.080339 4.362747 4.365321 4.362747 c 2.28498 0 4.363577 -2.077757 4.365319 -4.362748 c .0018 -2.287331 -2.078578 -4.36875 -4.365319 -4.36875 z"/><path d="m 50.000352 18.165735 c -2.286738 0 -4.367432 2.082004 -4.366175 4.368751 c .0013 2.28499 2.081195 4.362747 4.366175 4.362747 c 2.28498 0 4.363548 -2.077757 4.365321 -4.362748 c .0018 -2.287331 -2.07858 -4.36875 -4.365321 -4.36875 z"/><path d="m 73.823354 18.165735 c -2.286736 0 -4.36648 2.082004 -4.365318 4.368751 c .0012 2.28499 2.080339 4.362747 4.365318 4.362747 c 2.284982 0 4.363579 -2.077757 4.365322 -4.362748 c .0018 -2.287331 -2.078579 -4.36875 -4.365322 -4.36875 z"/><path d="m 26.177198 27.991147 c -6.500014 0 -7.857126 7.281966 -8.684418 10.405727 c -.827297 3.12372 1.67377 3.66172 8.684418 3.66172 c 7.010649 0 9.511711 -.538 8.684418 -3.66172 C 34.03432 35.273113 32.677213 27.991147 26.177198 27.991147 Z"/><path d="m 50.000352 27.991147 c -6.500014 0 -7.85798 7.281966 -8.685273 10.405727 c -.827298 3.12372 1.67463 3.66172 8.685273 3.66172 c 7.010646 0 9.511717 -.538 8.684419 -3.66172 C 57.85748 35.273113 56.50037 27.991147 50.000352 27.991147 Z"/><path d="m 73.823354 27.991147 c -6.500014 0 -7.857123 7.281966 -8.684417 10.405727 c -.827292 3.12372 1.673775 3.66172 8.684417 3.66172 c 7.010651 0 9.511714 -.538 8.684421 -3.66172 c -.827296 -3.123761 -2.184403 -10.405727 -8.684421 -10.405727 z"/></svg>
