<svg xmlns="http://www.w3.org/2000/svg" xmlns:xlink="http://www.w3.org/1999/xlink" viewBox="0 0 100 125" version="1.1" x="0px" y="0px"><title>Slice 1</title><desc>Created with Sketch.</desc><defs><circle id="e" cx="50" cy="10" r="7"/><path id="d" d="M70.0000892,1.00012073 C70.0000892,1.00012073 69.8249185,0.797446739 85.0000714,17.0000981"/><circle id="c" cx="85" cy="18" r="3"/><circle id="b" cx="18" cy="14" r="3"/><path id="a" d="M56.8963864,22.7444808 C56.8963864,22.7444808 67.5831403,23.6856085 68.3571072,24.1773479 C69.1310741,24.6690873 69.441609,26.3990283 70.3519767,27.4576488 C71.2623443,28.5162693 72.6089172,29.1215627 72.6089172,29.1215627 C72.6089172,29.1215627 74.5580223,29.7117148 76.0926048,29.3573152 C77.6271873,29.0029156 78.41585,28.3579176 78.9519177,27.6566973 C79.4879854,26.9554771 80.7453445,23.0955215 80.7453445,23.0955215 C80.7453445,23.0955215 80.7023179,21.2287946 83.5230047,22.7251878 C86.3436915,24.221581 86.387207,24.6690872 86.387207,24.6690872 C86.387207,24.6690872 85.98656,26.5858127 85.98656,28.0330153 C85.98656,29.326125 85.8022016,30.7275836 85.2480641,32.0387244 C84.8644214,32.9464588 83.8678745,34.2000281 83.5230047,34.4691208 C83.5230047,34.4691206 82.3231647,35.4588104 81.3887572,35.8269163 C81.2426939,35.9195533 78.3888667,36.9197458 78.3888667,36.9197458 L74.5548929,37.9022851 L68.2989235,38.7389476 L65.8693876,54.9988124 L66.141734,83.0041303 C66.141734,83.0041303 66.7131573,87.3369591 62.6530387,91.0450066 C58.59292,94.753054 52.7956583,94.7675787 52.7956583,94.7675787 L49.2841013,67.3609964 L47.9653231,97 C47.9653231,97 37.8368317,91.6952298 35.3767317,89.0257581 C32.9166317,86.3562864 33.211385,81.1950695 33.211385,81.1950695 L34.1788321,53.86193 L28.9931493,37.1790284 C28.9931493,37.1790284 26.3785207,36.8598475 23.3009261,36.0957902 C20.2233315,35.3317329 17.7074699,34.4691208 17.7074699,34.4691208 C17.7074699,34.4691208 15.9484567,33.6708809 15.5018665,33.2921705 C14.945521,32.8203871 14.0622371,31.9535652 13.7402207,30.6763058 C13.4182043,29.3990464 13.387207,21.7713547 13.387207,21.7713547 C13.387207,21.7713547 14.0122545,19.9776523 15.9155085,19.2961886 C17.8187625,18.614725 20.2264802,19.3225402 20.2264802,19.3225402 L20.259728,22.3892051 C20.259728,22.3892051 20.259728,25.3813556 20.8801911,26.1250118 C20.8801911,26.1250118 21.5612826,26.8426219 21.5612826,26.8059178 C21.698955,26.8157027 20.5745095,26.5423621 21.9742997,26.8352725 C23.37409,27.1281829 25.0239457,27.0520227 25.0239457,27.0520227 C25.0239457,27.0520227 26.6683871,27.0763988 27.1772313,26.8426218 C27.949826,26.4876706 30.1773586,24.2215809 30.1773586,24.2215809 L31.6103689,22.7251878 C31.6103689,22.7251878 31.8356742,22.5051798 32.7222573,22.3892052 C33.6088404,22.2732306 34.1788321,22.3892052 34.1788321,22.3892052 L37.0177567,22.3892052 L40.2411818,22.7251877 C40.2411818,22.7251877 41.2654038,21.4982548 43.7962544,20.6683529 C46.327105,19.8384511 47.3327428,19.4075885 49.2841013,19.3225402 C51.2354598,19.2374919 51.4029744,19.2140264 53.4819868,19.9961549 C55.5609991,20.7782833 56.8963864,22.7444808 56.8963864,22.7444808 Z"/></defs><g stroke="none" stroke-width="1" fill="none" fill-rule="evenodd"><g><g><mask fill="#000000"><use xlink:href="#e"/></mask><use stroke="#000000" fill="#000000" xlink:href="#e"/><mask fill="#000000"><use xlink:href="#d"/></mask><use stroke="#000000" stroke-linecap="square" xlink:href="#d"/><mask fill="#000000"><use xlink:href="#c"/></mask><use stroke="#000000" fill="#000000" xlink:href="#c"/><mask fill="#000000"><use xlink:href="#b"/></mask><use stroke="#000000" fill="#000000" xlink:href="#b"/><mask fill="#000000"><use xlink:href="#a"/></mask><use stroke="#000000" fill="#000000" xlink:href="#a"/></g></g></g></svg>
