<svg xmlns="http://www.w3.org/2000/svg" xmlns:xlink="http://www.w3.org/1999/xlink" xml:space="preserve" version="1.1" style="shape-rendering:geometricPrecision;text-rendering:geometricPrecision;image-rendering:optimizeQuality;" viewBox="0 0 0.645 1.1949999999999998" x="0px" y="0px" fill-rule="evenodd" clip-rule="evenodd"><defs><style type="text/css">
   
    .fil0 {fill:black;fill-rule:nonzero}
   
  </style></defs><g><path class="fil0" d="M0.013 0.059l0.047 -0.028 0 0 0.049 -0.028c0.011,-0.006 0.024,-0.003 0.031,0.007l0.078 0.108c0.001,0.001 0.002,0.002 0.002,0.004l0.038 0.066c0.001,0 0.001,0 0.001,0.001 0,0 0.001,0.001 0.001,0.001l0.381 0.661c0.007,0.011 0.003,0.025 -0.008,0.032l-0.061 0.035 0 0 -0.06 0.035c-0.012,0.006 -0.026,0.002 -0.032,-0.009l-0.001 -0.001 -0.381 -0.659c0,-0.001 0,-0.001 0,-0.002 -0.001,0 -0.001,-0.001 -0.001,-0.001l-0.038 -0.066c-0.001,-0.001 -0.001,-0.001 -0.001,-0.002 -0.001,-0.001 -0.001,-0.002 -0.002,-0.003l-0.054 -0.121c-0.005,-0.011 0,-0.024 0.011,-0.03zm0.113 0.18l0.081 -0.047 -0.016 -0.029 -0.081 0.047 0.016 0.029zm0.105 -0.007l-0.082 0.047 0.359 0.622 0.041 -0.024c0,0.001 0.037,-0.021 0.041,-0.023l-0.359 -0.622zm-0.142 -0.063l0.076 -0.045 -0.051 -0.07 -0.03 0.018 0 0 -0.031 0.017 0.036 0.08zm0.397 0.599c0.011,-0.007 0.025,-0.003 0.032,0.008 0.006,0.012 0.002,0.026 -0.009,0.032 -0.011,0.007 -0.025,0.003 -0.032,-0.008 -0.006,-0.011 -0.003,-0.026 0.009,-0.032zm-0.082 -0.142c0.011,-0.006 0.025,-0.002 0.032,0.009 0.006,0.011 0.002,0.025 -0.009,0.032 -0.011,0.006 -0.025,0.002 -0.032,-0.009 -0.006,-0.011 -0.002,-0.025 0.009,-0.032zm-0.082 -0.141c0.011,-0.007 0.026,-0.003 0.032,0.008 0.007,0.011 0.003,0.026 -0.008,0.032 -0.012,0.007 -0.026,0.003 -0.032,-0.008 -0.007,-0.012 -0.003,-0.026 0.008,-0.032zm-0.082 -0.142c0.012,-0.006 0.026,-0.003 0.032,0.009 0.007,0.011 0.003,0.025 -0.008,0.032 -0.011,0.006 -0.026,0.002 -0.032,-0.009 -0.007,-0.011 -0.003,-0.025 0.008,-0.032z"/></g><text x="0" y="15.956" fill="#000000" font-size="5px" font-weight="bold" font-family="'Helvetica Neue', Helvetica, Arial-Unicode, Arial, Sans-serif">Created by Deemak Daksina</text><text x="0" y="20.956" fill="#000000" font-size="5px" font-weight="bold" font-family="'Helvetica Neue', Helvetica, Arial-Unicode, Arial, Sans-serif">from the Noun Project</text></svg>