<svg xmlns="http://www.w3.org/2000/svg" xmlns:xlink="http://www.w3.org/1999/xlink" version="1.1" x="0px" y="0px" viewBox="0 0 52 65" enable-background="new 0 0 52 52" xml:space="preserve"><g><g><g><path d="M46.5,47c-1.9296875,0-3.5-1.5703125-3.5-3.5v-35C43,6.5703125,44.5703125,5,46.5,5S50,6.5703125,50,8.5v35     C50,45.4296875,48.4296875,47,46.5,47z M46.5,7C45.6728516,7,45,7.6728516,45,8.5v35c0,0.8271484,0.6728516,1.5,1.5,1.5     s1.5-0.6728516,1.5-1.5v-35C48,7.6728516,47.3271484,7,46.5,7z"/></g></g><g><g><path d="M30.6445313,24H10v-2h20.6445313C36.2880859,22,43,13.6064453,43,11h2v2h-0.4814453     C42.7392578,17.3164063,36.3408203,24,30.6445313,24z"/></g></g><g><g><path d="M45,41h-2c0-2.6064453-6.7119141-11-12.3554688-11H10v-2h20.6445313c5.6962891,0,12.0947266,6.6835938,13.8740234,11H45     V41z"/></g></g><g><g><path d="M5,33H2V19h3c3.859375,0,7,3.140625,7,7S8.859375,33,5,33z M4,31h1c2.7568359,0,5-2.2431641,5-5s-2.2431641-5-5-5H4V31z"/></g></g><g><g><rect x="14" y="19" width="2" height="4"/></g></g><g><g><rect x="19.8984375" y="19" width="2" height="4"/></g></g><g><g><rect x="25.796875" y="19" width="2" height="4"/></g></g><g><g><path d="M28,20h-2c-0.5527344,0-1-0.4472656-1-1s0.4472656-1,1-1h2c0.5527344,0,1,0.4472656,1,1S28.5527344,20,28,20z"/></g></g><g><g><path d="M22,20h-2c-0.5527344,0-1-0.4472656-1-1s0.4472656-1,1-1h2c0.5527344,0,1,0.4472656,1,1S22.5527344,20,22,20z"/></g></g><g><g><path d="M16,20h-2c-0.5527344,0-1-0.4472656-1-1s0.4472656-1,1-1h2c0.5527344,0,1,0.4472656,1,1S16.5527344,20,16,20z"/></g></g><g><g><path d="M26.0048828,38h-7.0107422C16.7919922,38,15,36.2080078,15,34.0048828V28h15v6.0048828     C30,36.2080078,28.2080078,38,26.0048828,38z M17,30v4.0048828C17,35.1054688,17.8945313,36,18.9941406,36h7.0107422     C27.1054688,36,28,35.1054688,28,34.0048828V30H17z"/></g></g></g><text x="0" y="67" fill="#000000" font-size="5px" font-weight="bold" font-family="'Helvetica Neue', Helvetica, Arial-Unicode, Arial, Sans-serif">Created by DinosoftLabs</text><text x="0" y="72" fill="#000000" font-size="5px" font-weight="bold" font-family="'Helvetica Neue', Helvetica, Arial-Unicode, Arial, Sans-serif">from the Noun Project</text></svg>