<svg xmlns="http://www.w3.org/2000/svg" xmlns:xlink="http://www.w3.org/1999/xlink" xml:space="preserve" version="1.1" style="shape-rendering:geometricPrecision;text-rendering:geometricPrecision;image-rendering:optimizeQuality;" viewBox="0 0 642 802.5" x="0px" y="0px" fill-rule="evenodd" clip-rule="evenodd"><defs><style type="text/css">
   
    .fil0 {fill:black;fill-rule:nonzero}
   
  </style></defs><g><path class="fil0" d="M50 349c14,-13 29,-24 45,-32 17,-9 35,-14 53,-17l11 -1 7 7 19 20 0 0c3,3 7,4 12,4 4,0 8,-1 11,-4 4,-4 5,-8 5,-12 0,-4 -1,-9 -5,-12l-12 -13 -11 -10 6 -14c4,-7 8,-14 12,-20 5,-7 10,-13 16,-19l0 0c23,-23 51,-36 80,-40 25,-3 50,0 73,10l113 -113c-2,-5 -3,-10 -3,-15 0,-11 4,-22 12,-30l0 0 0 0 0 0 26 -26 0 0c8,-8 19,-12 30,-12 10,0 21,4 29,12l51 51 0 0c8,8 12,19 12,29 0,11 -4,22 -12,30l0 0 -26 26 0 0 0 0c-8,8 -19,12 -30,12 -5,0 -10,-1 -15,-3l-113 113c10,23 13,48 10,73 -4,29 -17,58 -40,80l0 0c-6,6 -12,11 -18,16 -7,4 -14,8 -21,12l-14 6 -10 -10 -13 -13c-3,-3 -8,-5 -12,-5 -4,0 -8,2 -11,5l0 0c-4,3 -5,7 -5,11 0,5 1,9 5,12l0 0 19 19 7 8 -1 10c-3,18 -8,36 -17,53 -8,16 -18,31 -32,45l0 0 0 0c-34,33 -77,50 -121,50 -44,0 -88,-17 -122,-50l0 0 0 0c-33,-34 -50,-78 -50,-122 0,-44 17,-87 50,-121zm64 6c-12,6 -24,14 -34,24 -25,25 -38,58 -38,91 0,33 13,67 38,92l0 0 0 0c25,25 59,38 92,38 33,0 66,-13 91,-38l0 0 0 0c10,-10 18,-22 25,-34 4,-10 8,-20 10,-30l-11 -11 0 0c-12,-12 -18,-27 -18,-42 0,-15 6,-30 18,-41l0 0c11,-12 26,-17 41,-17 15,0 30,5 42,17l1 1 2 -1c5,-3 9,-7 13,-11l0 0c16,-16 25,-35 28,-56 3,-21 -1,-42 -12,-61l-8 -14 11 -11 136 -136 15 -15 15 15 3 3 26 -26 -50 -50 -26 26 4 3 15 15 -15 15 -137 136 -11 11 -14 -8c-19,-11 -40,-15 -61,-12 -21,3 -40,12 -56,28l0 0c-4,4 -8,8 -11,13l-1 2 1 1c12,12 17,27 17,42 0,15 -5,30 -17,41 -11,12 -26,18 -41,18 -15,0 -30,-6 -42,-18l0 0 -11 -11c-10,2 -20,6 -30,11zm436 -313l0 0 0 0 0 0z"/></g><text x="0" y="657" fill="#000000" font-size="5px" font-weight="bold" font-family="'Helvetica Neue', Helvetica, Arial-Unicode, Arial, Sans-serif">Created by Bismillah</text><text x="0" y="662" fill="#000000" font-size="5px" font-weight="bold" font-family="'Helvetica Neue', Helvetica, Arial-Unicode, Arial, Sans-serif">from the Noun Project</text></svg>