<svg xmlns="http://www.w3.org/2000/svg" data-name="Layer 1" viewBox="0 0 100 125" x="0px" y="0px"><title>Bass Drum</title><path d="M50,18.61c-19.22,0-34.27,8.1-34.27,18.43V63C15.73,73.3,30.78,81.39,50,81.39S84.27,73.3,84.27,63V37C84.27,26.7,69.22,18.61,50,18.61ZM20.92,63v-16a31.66,31.66,0,0,0,10.29,5.62V72.88C25.17,70.53,20.92,67.07,20.92,63Zm31.68-7.55a60.52,60.52,0,0,0,11-1.41V74.51a56.49,56.49,0,0,1-11,1.63ZM47.41,76.14a56.5,56.5,0,0,1-11-1.63V54a60.52,60.52,0,0,0,11,1.41Zm21.38-3.27V52.53a31.66,31.66,0,0,0,10.29-5.62V63C79.08,67.07,74.83,70.53,68.79,72.88ZM50,50.29c-13.76,0-29.08-5.44-29.08-13.25S36.24,23.79,50,23.79,79.08,29.23,79.08,37,63.76,50.29,50,50.29Z"/><text x="0" y="115" fill="#000000" font-size="5px" font-weight="bold" font-family="'Helvetica Neue', Helvetica, Arial-Unicode, Arial, Sans-serif">Created by Ben Hullinger</text><text x="0" y="120" fill="#000000" font-size="5px" font-weight="bold" font-family="'Helvetica Neue', Helvetica, Arial-Unicode, Arial, Sans-serif">from the Noun Project</text></svg>